Coordinates
version=1
nRows=9
nColumns=24
inDegrees=yes

Units are S.I. units (second, meters, Newtons, ...)
If the header above contains a line with 'inDegrees', this indicates whether rotational values are in degrees (yes) or radians (no).

endheader
time	pelvis_tilt	pelvis_list	pelvis_rotation	pelvis_tx	pelvis_ty	pelvis_tz	hip_flexion_r	hip_adduction_r	hip_rotation_r	knee_angle_r	ankle_angle_r	subtalar_angle_r	mtp_angle_r	hip_flexion_l	hip_adduction_l	hip_rotation_l	knee_angle_l	ankle_angle_l	subtalar_angle_l	mtp_angle_l	lumbar_extension	lumbar_bending	lumbar_rotation
      5.01000000	      7.91612661	      2.34324533	   -178.88307307	      0.27223178	      0.59232380	     -1.21283476	     62.20011132	    -28.49301254	    -12.12585755	    -98.31143984	     37.97880450	      7.77130315	      0.00000000	     66.19219324	    -33.33507660	     -6.07863330	    -97.53902072	     37.89046481	     16.54045574	      0.00000000	    -11.09186750	      1.55493114	      2.36725755
      5.01500000	      8.08618633	      2.39535965	   -178.78668734	      0.27297924	      0.59335156	     -1.21351080	     62.17766771	    -28.35725296	    -12.15254402	    -97.95955064	     38.15956673	      8.22112909	      0.00000000	     66.37561265	    -33.29188002	     -6.03530623	    -97.42092692	     37.81807715	     16.71653916	      0.00000000	    -10.97477982	      1.53832126	      2.31765148
      5.02000000	      7.94403748	      2.34937449	   -178.87874564	      0.27234487	      0.59403221	     -1.21315252	     61.98324831	    -28.42789616	    -12.28962893	    -97.93272063	     37.87460410	      7.83745352	      0.00000000	     65.99778005	    -33.39274652	     -6.26955511	    -97.35539214	     37.95114441	     16.82167073	      0.00000000	    -11.01080564	      1.55205546	      2.37575966
      5.02500000	      8.12290170	      2.35890562	   -178.73946369	      0.27312474	      0.59519506	     -1.21364823	     61.97176523	    -28.37046533	    -12.27877731	    -97.55447967	     38.09173444	      8.43176139	      0.00000000	     66.14186380	    -33.19665590	     -6.19625010	    -96.82089958	     37.44877739	     16.64607224	      0.00000000	    -10.88257344	      1.50521917	      2.27656825
      5.03000000	      8.12739402	      2.34731927	   -178.75447741	      0.27308672	      0.59625816	     -1.21363727	     61.91365460	    -28.38594860	    -12.52659774	    -97.46285000	     37.62533151	      7.67960676	      0.00000000	     65.98447116	    -33.21005506	     -6.33127251	    -96.61737395	     37.35517286	     16.66600633	      0.00000000	    -10.83584571	      1.50165593	      2.31091738
      5.03500000	      8.07327833	      2.33082036	   -178.86685602	      0.27259084	      0.59718724	     -1.21324276	     61.68644507	    -28.34663379	    -12.36516300	    -97.16491381	     37.95955096	      8.62860320	      0.00000000	     65.69477011	    -33.31247783	     -6.55064152	    -96.50522991	     37.40767918	     16.74958837	      0.00000000	    -10.78540318	      1.55591532	      2.40034060
      5.04000000	      8.22331702	      2.36566941	   -178.75797239	      0.27317083	      0.59867597	     -1.21374233	     61.69075541	    -28.31799065	    -12.76380480	    -96.94969737	     37.39179218	      7.65632390	      0.00000000	     65.75174930	    -33.19225955	     -6.54357438	    -96.10609525	     37.13183754	     16.70013968	      0.00000000	    -10.66376639	      1.54822258	      2.31787312
      5.04500000	      8.22898142	      2.32034954	   -178.78529742	      0.27318181	      0.59997986	     -1.21375643	     61.49668599	    -28.26860621	    -12.62883273	    -96.56075222	     37.67531786	      8.51819501	      0.00000000	     65.52641997	    -33.19175024	     -6.75177613	    -95.84031191	     37.03253789	     16.77736269	      0.00000000	    -10.62822446	      1.51590784	      2.32569002
      5.05000000	      8.13403925	      2.25740328	   -178.84029431	      0.27267497	      0.60122760	     -1.21338935	     61.30815315	    -28.36006192	    -12.83698423	    -96.44387277	     37.22644882	      7.84397285	      0.00000000	     65.13563741	    -33.22062137	     -7.03006318	    -95.65742855	     37.03893899	     16.84929235	      0.00000000	    -10.62301176	      1.52400422	      2.33426429
